<svg width="97" height="100" viewBox="0 0 97 100" fill="none" xmlns="http://www.w3.org/2000/svg">
<g clip-path="url(#clip0_38_360)">
<path d="M89.375 49.9725H88.5757L80.2962 25.7518L9.23274 49.9725L7.62499 49.9589M5.35416 49.9771H7.62499L58.2464 9.53809L71.0403 27.4777" stroke="#FAF9F6" stroke-width="9.08333" stroke-linecap="square"/>
<path d="M59.8541 72.6667C59.8541 75.678 58.6579 78.566 56.5286 80.6953C54.3993 82.8246 51.5113 84.0208 48.5 84.0208C45.4887 84.0208 42.6007 82.8246 40.4714 80.6953C38.3421 78.566 37.1458 75.678 37.1458 72.6667C37.1458 69.6554 38.3421 66.7674 40.4714 64.6381C42.6007 62.5087 45.4887 61.3125 48.5 61.3125C51.5113 61.3125 54.3993 62.5087 56.5286 64.6381C58.6579 66.7674 59.8541 69.6554 59.8541 72.6667Z" stroke="#FAF9F6" stroke-width="9.08333" stroke-linecap="square"/>
<path d="M91.6458 49.9585V95.3752H5.35414V49.9585H91.6458Z" stroke="#FAF9F6" stroke-width="9.08333" stroke-linecap="square"/>
<path d="M5.35414 49.9585H14.4375C14.4375 52.3675 13.4805 54.6779 11.777 56.3814C10.0736 58.0848 7.76319 59.0418 5.35414 59.0418V49.9585ZM91.6458 49.9585H82.5625C82.5625 52.3675 83.5195 54.6779 85.2229 56.3814C86.9264 58.0848 89.2368 59.0418 91.6458 59.0418V49.9585ZM5.35414 95.3752H14.4466C14.4478 94.1808 14.2134 92.9979 13.7569 91.8942C13.3004 90.7905 12.6307 89.7877 11.7861 88.9432C10.9416 88.0986 9.93875 87.4289 8.83507 86.9724C7.73139 86.5159 6.54851 86.2815 5.35414 86.2827V95.3752ZM91.6458 95.3752H82.5625C82.5625 92.9661 83.5195 90.6557 85.2229 88.9523C86.9264 87.2488 89.2368 86.2918 91.6458 86.2918V95.3752Z" stroke="#FAF9F6" stroke-width="9.08333" stroke-linecap="square"/>
</g>
<defs>
<clipPath id="clip0_38_360">
<rect width="97" height="100" fill="white"/>
</clipPath>
</defs>
</svg>
