<svg width="123" height="89" viewBox="0 0 123 89" fill="none" xmlns="http://www.w3.org/2000/svg">
<g clip-path="url(#clip0_38_347)">
<path d="M23.7317 0.101318L19.5503 7.59288L0.528198 40.9274V42.0558C0.528198 53.7513 10.0308 63.2663 21.7109 63.2663C33.3911 63.2663 42.8936 53.7513 42.8936 42.0558V40.9274L25.0578 9.66303L42.919 16.3698C42.919 16.4504 42.8936 16.5225 42.8936 16.6031C42.8936 22.1263 46.4481 26.7927 51.3667 28.5489V80.2347H34.4205V88.719H59.8398V28.5489C61.9376 27.7948 63.8004 26.5015 65.2414 24.7989L85.2167 32.5789L68.3129 62.2058V63.3342C68.3129 75.0254 77.8154 84.4769 89.4956 84.4769C101.176 84.4769 110.678 75.0254 110.678 63.3342V62.2058L89.4956 25.0873L68.2875 16.8661C68.2875 16.7813 68.3129 16.6964 68.3129 16.6031C68.3129 9.58667 62.6105 3.87679 55.6032 3.87679C53.7572 3.88389 51.9351 4.29629 50.2655 5.08494C48.5958 5.87358 47.1192 7.01929 45.9397 8.4413L23.7317 0.101318ZM55.6032 12.361C56.6941 12.4099 57.724 12.8782 58.4787 13.6684C59.2333 14.4586 59.6545 15.5098 59.6545 16.6031C59.6545 17.6965 59.2333 18.7477 58.4787 19.5379C57.724 20.3281 56.6941 20.7964 55.6032 20.8452C54.5124 20.7964 53.4825 20.3281 52.7278 19.5379C51.9732 18.7477 51.552 17.6965 51.552 16.6031C51.552 15.5098 51.9732 14.4586 52.7278 13.6684C53.4825 12.8782 54.5124 12.4099 55.6032 12.361ZM21.7109 20.9131L31.3575 37.8137H12.0643L21.7109 20.9131ZM89.4956 42.1873L99.1041 59.0242H79.8871L89.4956 42.1873ZM9.78928 46.2979H33.6325C32.7653 48.7727 31.1532 50.9175 29.0182 52.4369C26.8831 53.9563 24.3302 54.7756 21.7109 54.7821C16.1949 54.7821 11.5432 51.2272 9.78928 46.2979ZM77.5485 67.5084H101.443C100.585 70 98.9742 72.1624 96.8331 73.695C94.6921 75.2276 92.1275 76.0544 89.4956 76.0605C86.8637 76.0544 84.2991 75.2276 82.158 73.695C80.017 72.1624 78.4059 70 77.5485 67.5084Z" fill="#FAF9F6"/>
</g>
<defs>
<clipPath id="clip0_38_347">
<rect width="123" height="89" fill="white"/>
</clipPath>
</defs>
</svg>
