<svg width="180" height="32" viewBox="0 0 180 32" fill="none" xmlns="http://www.w3.org/2000/svg">
<g clip-path="url(#clip0_172_429)">
<path d="M56.2636 0H54.6792V31.5164H56.2636V0Z" fill="#FAF9F6"/>
<path d="M38.349 1.21263C38.3751 1.21263 38.4012 1.21263 38.4272 1.21263C42.2505 1.21263 43.4236 4.55337 44.2578 8.03218L44.8168 8.00516L44.8487 0.630332H44.252C44.2201 0.705371 44.1854 0.777409 44.1477 0.849446L44.0608 1.02054L43.887 0.951499C41.8132 0.111063 39.635 -0.153075 37.4164 0.162089C35.887 0.381203 34.7516 1.5338 34.5344 3.00757C35.3744 2.08309 36.3041 1.5278 37.3584 1.31769C37.6712 1.25166 38.0014 1.21864 38.3461 1.21263H38.349Z" fill="#FAF9F6"/>
<path d="M40.0666 14.1374C38.908 13.444 36.5532 11.8472 36.5272 11.8322C36.4345 11.7661 34.378 10.2594 33.2397 8.6115C32.7096 7.8431 32.2896 7.23978 32.0695 6.42936C31.441 4.12116 32.895 1.80396 33.8103 0.63335H28.588L26.5836 5.19572L18.2766 23.9705L8.45475 0.630348H4.9111e-06V1.04456L0.78784 1.08058C3.28458 1.17963 4.084 2.19116 4.084 5.24975V26.5998C4.084 29.6584 3.28168 30.673 0.784943 30.769L-0.00289154 30.808V31.2222H12.3273V30.805L11.6727 30.769C9.18176 30.673 8.37944 29.6614 8.37944 26.5998V5.5379L19.4033 31.2222H19.8523L28.979 10.4665L29.1615 10.9287C29.9088 12.8287 31.5858 14.4946 34.4359 16.1814L37.9377 18.2765C39.0731 18.9729 40.1101 19.8283 40.8631 20.6898C42.1723 22.0465 42.7111 23.2231 42.7111 24.7419C42.7111 27.6804 40.3331 29.9796 37.2976 29.9796C34.8675 29.9796 32.5214 28.5869 31.021 26.2577C30.1057 24.8559 29.7205 23.6913 29.3555 21.146H28.8458V31.2252H29.3845C29.677 30.3248 30.1057 29.9706 30.882 29.9706C31.3049 29.9706 31.9508 30.1087 32.6546 30.3548C35.1147 31.1532 36.9172 31.5524 38.0623 31.5524C43.0644 31.5524 46.6966 28.0436 46.6966 23.2111C46.6966 19.6602 44.6517 16.8628 40.0695 14.1434L40.0666 14.1374Z" fill="#FAF9F6"/>
<path d="M64.2491 17.8773V1.07755H74.3027V3.25968H66.6966V8.37734H73.5844V10.5505H66.6966V17.8743H64.252L64.2491 17.8773Z" fill="#FAF9F6"/>
<path d="M79.7538 1.07755V17.8773H77.3092V1.07755H79.7538Z" fill="#FAF9F6"/>
<path d="M96.3997 1.07755V17.8773H94.1521L85.9117 5.55587H85.761V17.8773H83.3164V1.07755H85.5815L93.8306 13.414H93.9812V1.07755H96.4026H96.3997Z" fill="#FAF9F6"/>
<path d="M107.392 1.07755H104.568L98.7343 17.8773H101.329L102.815 13.432H109.15L110.633 17.8773H113.228L107.395 1.07755H107.392ZM103.525 11.2979L105.92 4.13013H106.048L108.437 11.2979H103.525Z" fill="#FAF9F6"/>
<path d="M128.646 1.07755V17.8773H126.398L118.158 5.55587H118.007V17.8773H115.563V1.07755H117.828L126.077 13.414H126.227V1.07755H128.649H128.646Z" fill="#FAF9F6"/>
<path d="M145.671 6.54039H143.201C143.105 5.99411 142.928 5.51386 142.671 5.09664C142.413 4.68242 142.094 4.32824 141.72 4.03709C141.347 3.74594 140.927 3.52983 140.466 3.37975C140.006 3.23267 139.516 3.15763 138.998 3.15763C138.062 3.15763 137.228 3.40076 136.492 3.88701C135.757 4.37326 135.175 5.08764 134.752 6.02712C134.326 6.96661 134.114 8.11621 134.114 9.47291C134.114 10.8296 134.326 11.9942 134.752 12.9337C135.177 13.8732 135.757 14.5846 136.498 15.0678C137.237 15.5481 138.068 15.7882 138.992 15.7882C139.505 15.7882 139.991 15.7162 140.452 15.5721C140.912 15.428 141.332 15.2119 141.706 14.9267C142.08 14.6416 142.398 14.2934 142.659 13.8822C142.92 13.468 143.102 12.9937 143.201 12.4595L145.671 12.4685C145.541 13.2939 145.286 14.0533 144.907 14.7437C144.53 15.437 144.046 16.0313 143.458 16.5326C142.87 17.0338 142.198 17.421 141.445 17.6942C140.689 17.9673 139.867 18.1054 138.975 18.1054C137.57 18.1054 136.321 17.7602 135.224 17.0669C134.126 16.3765 133.263 15.383 132.631 14.0923C132 12.8016 131.684 11.2618 131.684 9.47291C131.684 7.68398 132 6.13818 132.634 4.85051C133.269 3.56284 134.132 2.57233 135.23 1.88197C136.327 1.19161 137.576 0.84343 138.975 0.84343C139.835 0.84343 140.637 0.969495 141.384 1.22463C142.132 1.47976 142.804 1.85195 143.4 2.34121C143.997 2.83046 144.489 3.42777 144.881 4.13014C145.272 4.8325 145.535 5.63392 145.671 6.53739V6.54039Z" fill="#FAF9F6"/>
<path d="M151.047 1.07755V17.8773H148.602V1.07755H151.047Z" fill="#FAF9F6"/>
<path d="M162.042 1.07755H159.215L153.382 17.8773H155.98L157.466 13.432H163.797L165.28 17.8773H167.878L162.045 1.07755H162.042ZM158.175 11.2979L160.571 4.13013H160.695L163.085 11.2979H158.175Z" fill="#FAF9F6"/>
<path d="M170.21 17.8773V1.07755H172.655V15.6951H180V17.8773H170.21Z" fill="#FAF9F6"/>
<path d="M70.3606 28.2177C70.3606 28.7369 70.239 29.1842 69.9986 29.5504C69.7524 29.9165 69.428 30.1957 69.0253 30.3848C68.6169 30.5709 68.1738 30.6669 67.6872 30.6669C67.2469 30.6669 66.8269 30.5949 66.4214 30.4448C66.013 30.2977 65.6539 30.0636 65.3382 29.7455C65.2339 29.6404 65.1412 29.5293 65.0514 29.4003L64.9529 30.5499H64.2491V27.8965H64.9906C65.1209 28.2957 65.315 28.6559 65.5699 28.9681C65.8277 29.2802 66.1318 29.5203 66.4852 29.6914C66.8414 29.8625 67.2266 29.9496 67.6437 29.9496C67.9913 29.9496 68.2896 29.8985 68.5416 29.7935C68.7936 29.6884 68.9877 29.5263 69.1267 29.3072C69.2658 29.0911 69.3353 28.812 69.3353 28.4758C69.3353 28.1636 69.2744 27.9025 69.1499 27.6954C69.0253 27.4883 68.8603 27.3172 68.6517 27.1851C68.4461 27.0531 68.2057 26.942 67.9392 26.849C67.6727 26.7559 67.3975 26.6719 67.1108 26.5878C66.8038 26.5008 66.4938 26.4017 66.1897 26.2877C65.8856 26.1766 65.6075 26.0265 65.3613 25.8434C65.1151 25.6603 64.9182 25.4262 64.7705 25.1471C64.6256 24.8679 64.5532 24.5167 64.5532 24.0935C64.5532 23.6463 64.6633 23.2591 64.8834 22.9349C65.1007 22.6108 65.3961 22.3586 65.7639 22.1785C66.1318 21.9984 66.5344 21.9084 66.9747 21.9084C67.3222 21.9084 67.6495 21.9564 67.9595 22.0585C68.2665 22.1575 68.5532 22.3376 68.8139 22.5897C68.9327 22.7068 69.0427 22.8449 69.1441 23.007L69.2426 22.0284H69.903V24.2616H69.1615C69.0369 23.9164 68.8718 23.6223 68.6691 23.3792C68.4663 23.139 68.2259 22.9469 67.9566 22.8179C67.6843 22.6858 67.3918 22.6198 67.0731 22.6198C66.7545 22.6198 66.4707 22.6768 66.2419 22.7878C66.0101 22.9019 65.8306 23.061 65.7089 23.2621C65.5844 23.4662 65.5235 23.7123 65.5235 24.0035C65.5235 24.2766 65.5844 24.5017 65.7089 24.6788C65.8335 24.8589 65.9986 25.009 66.2071 25.1321C66.4156 25.2521 66.656 25.3512 66.9254 25.4382C67.1977 25.5223 67.4728 25.6033 67.7596 25.6813C68.084 25.7714 68.3997 25.8704 68.7096 25.9875C69.0196 26.1046 69.2976 26.2546 69.5467 26.4377C69.7987 26.6238 69.9986 26.861 70.1463 27.1461C70.2911 27.4343 70.3635 27.7944 70.3635 28.2267L70.3606 28.2177Z" fill="#FAF9F6"/>
<path d="M74.9718 29.8025V30.4868C74.9052 30.5198 74.8212 30.5468 74.7227 30.5799C74.6242 30.6069 74.5257 30.6279 74.4157 30.6429C74.3056 30.6579 74.1926 30.6669 74.0681 30.6669C73.7292 30.6669 73.4048 30.6039 73.0949 30.4748C72.7879 30.3457 72.5359 30.1236 72.3418 29.8025C72.1506 29.4843 72.0522 29.0401 72.0522 28.4728V25.138H70.9747V24.5107H71.0326C71.2614 24.5107 71.4642 24.4957 71.6293 24.4657C71.7944 24.4327 71.9218 24.3726 72.0029 24.2856C72.0898 24.1956 72.1333 24.0755 72.1333 23.9134V22.7728H73.0833V24.4537H74.8299V25.138H73.0833V28.4608C73.0833 28.8119 73.1267 29.0971 73.2165 29.3162C73.3063 29.5353 73.428 29.6974 73.5902 29.7965C73.7524 29.8985 73.9406 29.9465 74.1608 29.9465C74.323 29.9465 74.4736 29.9315 74.6126 29.9015C74.7516 29.8685 74.8704 29.8385 74.9689 29.8025H74.9718Z" fill="#FAF9F6"/>
<path d="M79.6959 24.3667V25.4382C79.6409 25.4142 79.5771 25.3962 79.5047 25.3842C79.4323 25.3722 79.357 25.3632 79.2788 25.3542C79.2035 25.3482 79.1282 25.3422 79.0616 25.3422C78.853 25.3422 78.6734 25.3722 78.517 25.4352C78.3635 25.4922 78.2274 25.5853 78.1057 25.7054C77.9841 25.8254 77.8769 25.9785 77.7755 26.1616C77.735 26.2366 77.6915 26.3177 77.6481 26.4047V29.5954C77.6481 29.7244 77.7031 29.8145 77.8161 29.8775C77.9291 29.9376 78.0594 29.9766 78.2071 29.9916C78.3577 30.0096 78.4881 30.0156 78.5952 30.0156H78.7922V30.5559H75.6409V30.0156H75.664C75.9421 30.0156 76.168 29.9886 76.3447 29.9346C76.5243 29.8775 76.6141 29.7605 76.6141 29.5864V25.5793C76.6141 25.4592 76.5822 25.3692 76.5185 25.3061C76.4577 25.2491 76.3621 25.1981 76.2346 25.1561C76.1072 25.117 75.9479 25.078 75.7538 25.036L75.638 25.012V24.4627H77.538V25.7894C77.6365 25.5553 77.7495 25.3392 77.8769 25.1501C78.0507 24.8979 78.2564 24.6998 78.491 24.5558C78.7256 24.4117 78.995 24.3426 79.2962 24.3426C79.3715 24.3426 79.4497 24.3426 79.5221 24.3426C79.5945 24.3486 79.6524 24.3577 79.6901 24.3727L79.6959 24.3667Z" fill="#FAF9F6"/>
<path d="M86.9573 30.0066V30.5469H85.034V29.5083C84.8632 29.7394 84.6923 29.9375 84.5156 30.0996C84.307 30.2857 84.0811 30.4268 83.8436 30.5258C83.6032 30.6219 83.3338 30.6699 83.0326 30.6699C82.6705 30.6699 82.3519 30.6039 82.071 30.4658C81.7929 30.3307 81.5786 30.1176 81.4251 29.8295C81.2687 29.5413 81.1934 29.1781 81.1934 28.7369V25.5703C81.1934 25.3932 81.1238 25.2701 80.9848 25.2041C80.8458 25.138 80.6314 25.078 80.3389 25.03L80.197 25.006V24.4567H82.2245V28.5958C82.2245 28.899 82.2563 29.1481 82.3201 29.3462C82.3809 29.5413 82.4823 29.6884 82.6271 29.7815C82.769 29.8745 82.9631 29.9195 83.2122 29.9195C83.4613 29.9195 83.7046 29.8685 83.9305 29.7635C84.1535 29.6584 84.3679 29.5053 84.5677 29.3072C84.6981 29.1781 84.8197 29.0281 84.9385 28.86V25.5733C84.9385 25.3962 84.869 25.2731 84.7241 25.2071C84.5822 25.1411 84.3621 25.084 84.0608 25.045L83.8031 25.009V24.4597H85.9696V29.5834C85.9696 29.6944 86.013 29.7815 86.097 29.8475C86.1839 29.9105 86.2969 29.9556 86.4388 29.9796C86.5808 30.0036 86.7459 30.0156 86.9312 30.0156H86.966L86.9573 30.0066Z" fill="#FAF9F6"/>
<path d="M93.2802 29.2022C93.1093 29.4663 92.9124 29.7094 92.6836 29.9345C92.4547 30.1567 92.1854 30.3338 91.8726 30.4658C91.5597 30.5979 91.1919 30.6639 90.7661 30.6639C90.155 30.6639 89.622 30.5259 89.1615 30.2587C88.7038 29.9856 88.3476 29.6104 88.0956 29.1361C87.8436 28.6589 87.7219 28.1126 87.7219 27.4973C87.7219 26.882 87.8552 26.3117 88.1217 25.8404C88.3881 25.3692 88.7589 25 89.2339 24.7298C89.7089 24.4597 90.2563 24.3306 90.882 24.3306C91.2672 24.3306 91.6148 24.3757 91.9218 24.4687C92.2259 24.5618 92.4837 24.6638 92.698 24.7869C92.9066 24.9069 93.0659 25.018 93.1673 25.123V26.6088H92.1477V25.3962C92.0898 25.3602 92.0261 25.3211 91.9623 25.2851C91.6322 25.105 91.273 25.012 90.8849 25.012C90.4301 25.012 90.0478 25.12 89.7408 25.3302C89.4308 25.5433 89.202 25.8374 89.0456 26.2126C88.8921 26.5878 88.8168 27.017 88.8168 27.4973C88.8168 27.8635 88.8603 28.1996 88.95 28.5028C89.0398 28.809 89.1673 29.0701 89.3353 29.2922C89.5062 29.5113 89.7118 29.6794 89.9609 29.7995C90.21 29.9225 90.491 29.9796 90.8067 29.9796C91.1542 29.9796 91.4497 29.9135 91.6988 29.7785C91.9479 29.6404 92.1564 29.4723 92.3302 29.2742C92.504 29.0731 92.6517 28.881 92.7763 28.6949L93.286 29.1992L93.2802 29.2022Z" fill="#FAF9F6"/>
<path d="M97.7524 29.8025V30.4868C97.6829 30.5198 97.5989 30.5468 97.5004 30.5799C97.4048 30.6069 97.3034 30.6279 97.1934 30.6429C97.0862 30.6579 96.9703 30.6669 96.8487 30.6669C96.5098 30.6669 96.1854 30.6039 95.8755 30.4748C95.5656 30.3457 95.3136 30.1236 95.1224 29.8025C94.9283 29.4843 94.8328 29.0401 94.8328 28.4728V25.138H93.7553V24.5107H93.8103C94.042 24.5107 94.2419 24.4957 94.407 24.4657C94.575 24.4327 94.6995 24.3726 94.7835 24.2856C94.8704 24.1956 94.911 24.0755 94.911 23.9134V22.7728H95.861V24.4537H97.6105V25.138H95.861V28.4608C95.861 28.8119 95.9045 29.0971 95.9942 29.3162C96.084 29.5353 96.2086 29.6974 96.3708 29.7965C96.533 29.8985 96.7212 29.9465 96.9385 29.9465C97.1007 29.9465 97.2513 29.9315 97.3903 29.9015C97.5294 29.8685 97.651 29.8385 97.7495 29.8025H97.7524Z" fill="#FAF9F6"/>
<path d="M104.979 30.0066V30.5469H103.056V29.5113C102.888 29.7394 102.714 29.9375 102.537 30.0996C102.329 30.2857 102.103 30.4268 101.865 30.5258C101.625 30.6219 101.358 30.6699 101.054 30.6699C100.692 30.6699 100.374 30.6039 100.096 30.4658C99.8146 30.3307 99.6003 30.1176 99.4468 29.8295C99.2933 29.5413 99.2151 29.1781 99.2151 28.7369V25.5703C99.2151 25.3932 99.1485 25.2701 99.0094 25.2041C98.8704 25.138 98.6532 25.078 98.3606 25.03L98.2216 25.006V24.4567H100.249V28.5958C100.249 28.899 100.278 29.1481 100.342 29.3462C100.403 29.5413 100.507 29.6884 100.649 29.7815C100.794 29.8745 100.988 29.9195 101.234 29.9195C101.48 29.9195 101.729 29.8685 101.955 29.7635C102.178 29.6584 102.39 29.5053 102.592 29.3072C102.72 29.1781 102.844 29.0311 102.96 28.863V25.5733C102.96 25.3962 102.891 25.2731 102.749 25.2071C102.604 25.1411 102.384 25.084 102.083 25.045L101.828 25.009V24.4597H103.994V29.5834C103.994 29.6944 104.035 29.7815 104.122 29.8475C104.209 29.9105 104.319 29.9556 104.463 29.9796C104.605 30.0036 104.77 30.0156 104.953 30.0156H104.988L104.979 30.0066Z" fill="#FAF9F6"/>
<path d="M109.703 24.3667V25.4382C109.648 25.4142 109.584 25.3962 109.512 25.3842C109.44 25.3722 109.361 25.3632 109.286 25.3542C109.211 25.3482 109.135 25.3422 109.069 25.3422C108.86 25.3422 108.678 25.3722 108.524 25.4352C108.371 25.4922 108.232 25.5853 108.113 25.7054C107.991 25.8254 107.884 25.9785 107.783 26.1616C107.742 26.2366 107.699 26.3177 107.655 26.4047V29.5954C107.655 29.7244 107.71 29.8145 107.823 29.8775C107.936 29.9406 108.067 29.9766 108.214 29.9916C108.365 30.0096 108.495 30.0156 108.602 30.0156H108.797V30.5559H105.648V30.0156H105.671C105.949 30.0156 106.175 29.9886 106.352 29.9346C106.529 29.8775 106.618 29.7605 106.618 29.5864V25.5793C106.618 25.4592 106.589 25.3692 106.526 25.3061C106.465 25.2491 106.369 25.1981 106.242 25.1561C106.114 25.117 105.952 25.078 105.761 25.036L105.645 25.012V24.4627H107.542V25.7894C107.641 25.5553 107.754 25.3392 107.884 25.1501C108.058 24.8979 108.261 24.6998 108.498 24.5558C108.733 24.4117 109.002 24.3426 109.303 24.3426C109.379 24.3426 109.457 24.3426 109.529 24.3426C109.599 24.3486 109.657 24.3577 109.697 24.3727L109.703 24.3667Z" fill="#FAF9F6"/>
<path d="M114.795 29.3162C114.636 29.5053 114.442 29.6644 114.213 29.7905C113.987 29.9195 113.715 29.9826 113.399 29.9826C113.118 29.9826 112.863 29.9315 112.623 29.8205C112.379 29.7124 112.174 29.5533 111.997 29.3462C111.818 29.1391 111.681 28.881 111.583 28.5778C111.508 28.3377 111.458 28.0676 111.444 27.7734H115.768C115.768 27.1971 115.713 26.6929 115.594 26.2606C115.479 25.8284 115.311 25.4712 115.093 25.1861C114.873 24.9009 114.601 24.6878 114.282 24.5437C113.961 24.3997 113.59 24.3306 113.164 24.3306C112.649 24.3306 112.18 24.4657 111.757 24.7358C111.337 25.009 111.001 25.3812 110.757 25.8584C110.508 26.3357 110.387 26.888 110.387 27.5213C110.387 28.1546 110.517 28.7159 110.778 29.1872C111.041 29.6614 111.4 30.0246 111.852 30.2797C112.304 30.5379 112.811 30.6639 113.376 30.6639C113.778 30.6639 114.126 30.6039 114.424 30.4778C114.723 30.3548 114.98 30.1837 115.195 29.9676C115.409 29.7545 115.594 29.5143 115.736 29.2622L115.195 28.7579C115.085 28.941 114.951 29.1271 114.795 29.3132V29.3162ZM111.571 26.4918C111.661 26.1796 111.783 25.9125 111.942 25.6933C112.101 25.4742 112.284 25.3061 112.489 25.1891C112.698 25.072 112.924 25.015 113.161 25.015C113.416 25.015 113.636 25.063 113.822 25.1591C114.007 25.2581 114.161 25.3992 114.285 25.5943C114.41 25.7834 114.5 26.0295 114.563 26.3237C114.61 26.5518 114.644 26.8129 114.659 27.1041H111.461C111.479 26.888 111.516 26.6809 111.571 26.4918Z" fill="#FAF9F6"/>
</g>
<defs>
<clipPath id="clip0_172_429">
<rect width="180" height="31.5464" fill="white"/>
</clipPath>
</defs>
</svg>
